<svg width="18" height="16" viewBox="0 0 18 16" fill="none" xmlns="http://www.w3.org/2000/svg">
<path d="M9.08277 15.2067C8.57443 15.2067 8.09555 14.9733 7.75666 14.5667L6.65156 13.2333C6.62946 13.2067 6.54105 13.1733 6.50421 13.1667H6.13585C3.06368 13.1667 1.16292 12.4133 1.16292 8.66666V5.33333C1.16292 2.38666 2.8795 0.833328 6.13585 0.833328H12.0297C15.286 0.833328 17.0026 2.38666 17.0026 5.33333V8.66666C17.0026 11.6133 15.286 13.1667 12.0297 13.1667H11.6613C11.6024 13.1667 11.5508 13.1933 11.514 13.2333L10.4089 14.5667C10.07 14.9733 9.59111 15.2067 9.08277 15.2067ZM6.13585 1.83333C3.49835 1.83333 2.26801 2.94666 2.26801 5.33333V8.66666C2.26801 11.68 3.40995 12.1667 6.13585 12.1667H6.50421C6.87995 12.1667 7.30725 12.36 7.53564 12.6333L8.64073 13.9667C8.89859 14.2733 9.26695 14.2733 9.52481 13.9667L10.6299 12.6333C10.873 12.34 11.2561 12.1667 11.6613 12.1667H12.0297C14.6672 12.1667 15.8975 11.0533 15.8975 8.66666V5.33333C15.8975 2.94666 14.6672 1.83333 12.0297 1.83333H6.13585Z" fill="#190041"/>
<path d="M9.08277 8.00001C8.6702 8.00001 8.34604 7.70001 8.34604 7.33334C8.34604 6.96667 8.67757 6.66667 9.08277 6.66667C9.48797 6.66667 9.8195 6.96667 9.8195 7.33334C9.8195 7.70001 9.49534 8.00001 9.08277 8.00001Z" fill="#190041"/>
<path d="M12.0297 8.00001C11.6171 8.00001 11.293 7.70001 11.293 7.33334C11.293 6.96667 11.6245 6.66667 12.0297 6.66667C12.4349 6.66667 12.7664 6.96667 12.7664 7.33334C12.7664 7.70001 12.4423 8.00001 12.0297 8.00001Z" fill="#190041"/>
<path d="M6.13584 8.00001C5.72327 8.00001 5.39911 7.70001 5.39911 7.33334C5.39911 6.96667 5.73064 6.66667 6.13584 6.66667C6.54104 6.66667 6.87257 6.96667 6.87257 7.33334C6.87257 7.70001 6.54841 8.00001 6.13584 8.00001Z" fill="#190041"/>
</svg>
